<?xml version="1.0" encoding="UTF-8" standalone="no"?>
<!-- Created with Inkscape (http://www.inkscape.org/) -->

<svg
   xmlns:dc="http://purl.org/dc/elements/1.1/"
   xmlns:cc="http://creativecommons.org/ns#"
   xmlns:rdf="http://www.w3.org/1999/02/22-rdf-syntax-ns#"
   xmlns:svg="http://www.w3.org/2000/svg"
   xmlns="http://www.w3.org/2000/svg"
   xmlns:sodipodi="http://sodipodi.sourceforge.net/DTD/sodipodi-0.dtd"
   xmlns:inkscape="http://www.inkscape.org/namespaces/inkscape"
   width="210mm"
   height="297mm"
   viewBox="0 0 210 297"
   version="1.1"
   id="svg8"
   inkscape:version="0.92.5 (2060ec1f9f, 2020-04-08)"
   sodipodi:docname="mojok-logo-sets.svg">
  <defs
     id="defs2" />
  <sodipodi:namedview
     id="base"
     pagecolor="#ffffff"
     bordercolor="#666666"
     borderopacity="1.0"
     inkscape:pageopacity="0.0"
     inkscape:pageshadow="2"
     inkscape:zoom="1.2223126"
     inkscape:cx="269.37591"
     inkscape:cy="771.25463"
     inkscape:document-units="mm"
     inkscape:current-layer="layer1"
     showgrid="false"
     showguides="true"
     inkscape:guide-bbox="true"
     inkscape:window-width="1920"
     inkscape:window-height="1043"
     inkscape:window-x="0"
     inkscape:window-y="0"
     inkscape:window-maximized="1" />
  <metadata
     id="metadata5">
    <rdf:RDF>
      <cc:Work
         rdf:about="">
        <dc:format>image/svg+xml</dc:format>
        <dc:type
           rdf:resource="http://purl.org/dc/dcmitype/StillImage" />
        <dc:title></dc:title>
      </cc:Work>
    </rdf:RDF>
  </metadata>
  <g
     inkscape:label="Layer 1"
     inkscape:groupmode="layer"
     id="layer1">
    <circle
       style="opacity:1;fill:#008080;fill-opacity:1;stroke:none;stroke-width:0.132;stroke-miterlimit:4;stroke-dasharray:none;stroke-opacity:1"
       id="path823"
       r="19.255011"
       cy="99.860435"
       cx="65.330719" />
    <rect
       style="opacity:1;fill:#1a1a1a;fill-opacity:1;stroke:none;stroke-width:0.132;stroke-miterlimit:4;stroke-dasharray:none;stroke-opacity:1"
       id="rect1053"
       width="34.210499"
       height="34.210499"
       x="4.4617577"
       y="5.0080333"
       ry="0" />
    <path
       style="opacity:1;fill:#1a1a1a;fill-opacity:1;stroke:none;stroke-width:0.132;stroke-miterlimit:4;stroke-dasharray:none;stroke-opacity:1"
       clip-path="none"
       d="m 10.8301,44.95849 c -2.0554634,0 -3.7104822,1.655016 -3.7104822,3.710481 v 20.515047 c 0,2.055449 1.6550188,3.710473 3.7104822,3.710473 h 4.495365 V 59.177153 c 0,-0.192371 0.154921,-0.347296 0.347285,-0.347296 0.19237,0 0.347292,0.154925 0.347292,0.347296 v 13.717338 h 9.969307 V 59.177153 c 0,-0.192371 0.154925,-0.347296 0.347296,-0.347296 0.192363,0 0.34728,0.154925 0.34728,0.347296 v 13.717338 h 4.661211 c 2.05545,0 3.710482,-1.655024 3.710482,-3.710473 V 48.668971 c 0,-2.055465 -1.655032,-3.710481 -3.710482,-3.710481 z"
       id="rect864"
       inkscape:connector-curvature="0"
       inkscape:export-filename="/home/scahyo/myblog/mediumish-vuepress/logos/mojok-square-black.png"
       inkscape:export-xdpi="96"
       inkscape:export-ydpi="96" />
    <rect
       ry="4.5435815"
       y="3.2000923"
       x="-42.844948"
       height="34.210499"
       width="34.210499"
       id="rect1027"
       style="opacity:1;fill:#1a1a1a;fill-opacity:1;stroke:none;stroke-width:0.132;stroke-miterlimit:4;stroke-dasharray:none;stroke-opacity:1" />
    <rect
       ry="0.42522326"
       style="opacity:1;fill:#ffffff;fill-opacity:1;stroke:none;stroke-width:0.132;stroke-miterlimit:4;stroke-dasharray:none;stroke-opacity:1"
       id="rect1029"
       width="0.85044652"
       height="23.245535"
       x="-19.737095"
       y="20.187111" />
    <rect
       ry="0.42522326"
       y="20.187111"
       x="-32.796158"
       height="23.245535"
       width="0.85044652"
       id="rect1031"
       style="opacity:1;fill:#ffffff;fill-opacity:1;stroke:none;stroke-width:0.132;stroke-miterlimit:4;stroke-dasharray:none;stroke-opacity:1" />
    <rect
       ry="0"
       y="5.0080333"
       x="46.957611"
       height="34.210499"
       width="34.210499"
       id="rect1055"
       style="opacity:1;fill:#008080;fill-opacity:1;stroke:none;stroke-width:0.132;stroke-miterlimit:4;stroke-dasharray:none;stroke-opacity:1" />
    <path
       inkscape:connector-curvature="0"
       id="path1057"
       d="m 64.458395,8.1453575 c -7.738219,0 -13.968041,6.2298215 -13.968041,13.9680415 0,5.680501 3.359339,10.544233 8.205871,12.731215 V 22.364055 c 0,-0.192364 0.154924,-0.347291 0.347291,-0.347291 0.192367,0 0.347291,0.154927 0.347291,0.347291 v 12.771716 c 1.570155,0.60825 3.277564,0.945247 5.067588,0.945247 1.726805,0 3.377646,-0.31186 4.901748,-0.879835 V 22.364055 c 0,-0.192364 0.154925,-0.347291 0.347292,-0.347291 0.192366,0 0.34687,0.154927 0.34687,0.347291 v 12.555669 c 4.936143,-2.149812 8.372131,-7.060845 8.372131,-12.806325 0,-7.73822 -6.229821,-13.9680415 -13.968041,-13.9680415 z"
       style="opacity:1;fill:#ffffff;fill-opacity:1;stroke:none;stroke-width:0.132;stroke-miterlimit:4;stroke-dasharray:none;stroke-opacity:1" />
    <path
       inkscape:connector-curvature="0"
       id="path1059"
       d="m 54.662302,44.958491 c -2.055463,0 -3.710482,1.655015 -3.710482,3.710481 v 20.515046 c 0,2.055449 1.655019,3.710473 3.710482,3.710473 h 4.495365 V 59.177153 c 0,-0.192371 0.154922,-0.347296 0.347285,-0.347296 0.19237,0 0.347293,0.154925 0.347293,0.347296 v 13.717338 h 9.969306 V 59.177153 c 0,-0.192371 0.154925,-0.347296 0.347296,-0.347296 0.192363,0 0.34728,0.154925 0.34728,0.347296 v 13.717338 h 4.661212 c 2.055449,0 3.710481,-1.655024 3.710481,-3.710473 V 48.668972 c 0,-2.055466 -1.655032,-3.710481 -3.710481,-3.710481 z"
       clip-path="none"
       style="opacity:1;fill:#008080;fill-opacity:1;stroke:none;stroke-width:0.132;stroke-miterlimit:4;stroke-dasharray:none;stroke-opacity:1"
       inkscape:export-filename="/home/scahyo/myblog/mediumish-vuepress/logos/mojok-square-blue.png"
       inkscape:export-xdpi="96"
       inkscape:export-ydpi="96" />
    <circle
       cx="23.36939"
       cy="99.058632"
       r="19.254999"
       id="circle1061"
       style="opacity:1;fill:#1a1a1a;fill-opacity:1;stroke:none;stroke-width:0.132;stroke-miterlimit:4;stroke-dasharray:none;stroke-opacity:1" />
    <path
       inkscape:connector-curvature="0"
       id="path1063"
       d="m 14.158219,87.849738 c -1.774898,0 -3.204011,1.429109 -3.204011,3.204008 v 17.714774 c 0,1.77489 1.429113,3.20401 3.204011,3.20401 h 3.881755 v -11.84496 c 0,-0.166107 0.13378,-0.299887 0.299888,-0.299887 0.166109,0 0.299884,0.13378 0.299884,0.299887 v 11.84496 h 8.608518 v -11.84496 c 0,-0.166107 0.13378,-0.299887 0.2999,-0.299887 0.1661,0 0.29988,0.13378 0.29988,0.299887 v 11.84496 h 4.02496 c 1.77489,0 3.20401,-1.42912 3.20401,-3.20401 V 91.053746 c 0,-1.774899 -1.42912,-3.204008 -3.20401,-3.204008 z"
       clip-path="none"
       style="opacity:1;fill:#ffffff;fill-opacity:1;stroke:none;stroke-width:0.13199998;stroke-miterlimit:4;stroke-dasharray:none;stroke-opacity:1" />
    <path
       style="opacity:1;fill:#ffffff;fill-opacity:1;stroke:none;stroke-width:0.13199998;stroke-miterlimit:4;stroke-dasharray:none;stroke-opacity:1"
       clip-path="none"
       d="m 56.654073,87.582468 c -1.774898,0 -3.204011,1.429109 -3.204011,3.204008 v 17.714774 c 0,1.77489 1.429113,3.20401 3.204011,3.20401 h 3.881755 V 99.860303 c 0,-0.16611 0.13378,-0.29989 0.299888,-0.29989 0.166109,0 0.299884,0.13378 0.299884,0.29989 v 11.844957 h 8.608518 V 99.860303 c 0,-0.16611 0.13378,-0.29989 0.2999,-0.29989 0.1661,0 0.29988,0.13378 0.29988,0.29989 v 11.844957 h 4.02496 c 1.77489,0 3.20401,-1.42912 3.20401,-3.20401 V 90.786476 c 0,-1.774899 -1.42912,-3.204008 -3.20401,-3.204008 z"
       id="path1065"
       inkscape:connector-curvature="0" />
    <path
       style="opacity:1;fill:#ffffff;fill-opacity:1;stroke:none;stroke-width:0.132;stroke-miterlimit:4;stroke-dasharray:none;stroke-opacity:1"
       d="m 21.160732,8.1453575 c -7.738219,0 -13.9680415,6.2298215 -13.9680415,13.9680415 0,5.680501 3.3593395,10.544233 8.2058715,12.731215 V 22.364055 c 0,-0.192364 0.154924,-0.347291 0.347291,-0.347291 0.192367,0 0.347291,0.154927 0.347291,0.347291 v 12.771716 c 1.570155,0.60825 3.277564,0.945247 5.067588,0.945247 1.726805,0 3.377646,-0.31186 4.901748,-0.879835 V 22.364055 c 0,-0.192364 0.154925,-0.347291 0.347292,-0.347291 0.192366,0 0.34687,0.154927 0.34687,0.347291 v 12.555669 c 4.936143,-2.149812 8.372131,-7.060845 8.372131,-12.806325 0,-7.73822 -6.229821,-13.9680415 -13.968041,-13.9680415 z"
       id="path1067"
       inkscape:connector-curvature="0" />
    <path
       style="opacity:1;fill:#008080;fill-opacity:1;stroke:none;stroke-width:0.132;stroke-miterlimit:4;stroke-dasharray:none;stroke-opacity:1"
       d="m 66.062012,123.09273 c -7.738219,0 -13.968041,6.22982 -13.968041,13.96804 0,5.6805 3.359339,10.54424 8.205871,12.73122 v -12.48056 c 0,-0.19237 0.154924,-0.34729 0.347291,-0.34729 0.192367,0 0.347291,0.15492 0.347291,0.34729 v 12.77171 c 1.570155,0.60825 3.277564,0.94525 5.067588,0.94525 1.726805,0 3.377646,-0.31186 4.901748,-0.87983 v -12.83713 c 0,-0.19237 0.154925,-0.34729 0.347292,-0.34729 0.192366,0 0.34687,0.15492 0.34687,0.34729 v 12.55567 c 4.936143,-2.14981 8.372131,-7.06085 8.372131,-12.80633 0,-7.73822 -6.229821,-13.96804 -13.968041,-13.96804 z"
       id="path1069"
       inkscape:connector-curvature="0"
       inkscape:export-xdpi="96"
       inkscape:export-ydpi="96" />
    <path
       inkscape:connector-curvature="0"
       id="path1071"
       d="m 21.160732,123.09273 c -7.738219,0 -13.9680415,6.22982 -13.9680415,13.96804 0,5.6805 3.3593395,10.54424 8.2058715,12.73122 v -12.48056 c 0,-0.19237 0.154924,-0.34729 0.347291,-0.34729 0.192367,0 0.347291,0.15492 0.347291,0.34729 v 12.77171 c 1.570155,0.60825 3.277564,0.94525 5.067588,0.94525 1.726805,0 3.377646,-0.31186 4.901748,-0.87983 v -12.83713 c 0,-0.19237 0.154925,-0.34729 0.347292,-0.34729 0.192366,0 0.34687,0.15492 0.34687,0.34729 v 12.55567 c 4.936143,-2.14981 8.372131,-7.06085 8.372131,-12.80633 0,-7.73822 -6.229821,-13.96804 -13.968041,-13.96804 z"
       style="opacity:1;fill:#1a1a1a;fill-opacity:1;stroke:none;stroke-width:0.132;stroke-miterlimit:4;stroke-dasharray:none;stroke-opacity:1"
       inkscape:export-xdpi="96"
       inkscape:export-ydpi="96" />
    <circle
       cx="109.71247"
       cy="99.860435"
       r="19.255011"
       id="circle1073"
       style="opacity:1;fill:#00c687;fill-opacity:1;stroke:none;stroke-width:0.132;stroke-miterlimit:4;stroke-dasharray:none;stroke-opacity:1" />
    <rect
       style="opacity:1;fill:#00c687;fill-opacity:1;stroke:none;stroke-width:0.132;stroke-miterlimit:4;stroke-dasharray:none;stroke-opacity:1"
       id="rect1075"
       width="34.210499"
       height="34.210499"
       x="91.339363"
       y="5.0080333"
       ry="0" />
    <path
       style="opacity:1;fill:#ffffff;fill-opacity:1;stroke:none;stroke-width:0.132;stroke-miterlimit:4;stroke-dasharray:none;stroke-opacity:1"
       d="m 108.84015,8.1453575 c -7.73822,0 -13.968042,6.2298215 -13.968042,13.9680415 0,5.680501 3.359339,10.544233 8.205872,12.731215 V 22.364055 c 0,-0.192364 0.15492,-0.347291 0.34729,-0.347291 0.19237,0 0.34729,0.154927 0.34729,0.347291 v 12.771716 c 1.57016,0.60825 3.27756,0.945247 5.06759,0.945247 1.7268,0 3.37764,-0.31186 4.90175,-0.879835 V 22.364055 c 0,-0.192364 0.15492,-0.347291 0.34729,-0.347291 0.19236,0 0.34687,0.154927 0.34687,0.347291 v 12.555669 c 4.93614,-2.149812 8.37213,-7.060845 8.37213,-12.806325 0,-7.73822 -6.22982,-13.9680415 -13.96804,-13.9680415 z"
       id="path1077"
       inkscape:connector-curvature="0" />
    <path
       style="opacity:1;fill:#00c687;fill-opacity:1;stroke:none;stroke-width:0.132;stroke-miterlimit:4;stroke-dasharray:none;stroke-opacity:1"
       clip-path="none"
       d="m 97.974978,44.958491 c -2.055463,0 -3.710482,1.655015 -3.710482,3.710481 v 20.515046 c 0,2.055449 1.655019,3.710473 3.710482,3.710473 h 4.495362 V 59.177153 c 0,-0.192371 0.15493,-0.347296 0.34729,-0.347296 0.19238,0 0.34729,0.154925 0.34729,0.347296 v 13.717338 h 9.96931 V 59.177153 c 0,-0.192371 0.15493,-0.347296 0.3473,-0.347296 0.19236,0 0.34728,0.154925 0.34728,0.347296 v 13.717338 h 4.66121 c 2.05545,0 3.71048,-1.655024 3.71048,-3.710473 V 48.668972 c 0,-2.055466 -1.65503,-3.710481 -3.71048,-3.710481 z"
       id="path1079"
       inkscape:connector-curvature="0"
       inkscape:export-filename="/home/scahyo/myblog/mediumish-vuepress/logos/mojok-square-green.png"
       inkscape:export-xdpi="96"
       inkscape:export-ydpi="96" />
    <path
       inkscape:connector-curvature="0"
       id="path1081"
       d="m 101.03583,87.582468 c -1.774901,0 -3.204014,1.429109 -3.204014,3.204008 v 17.714774 c 0,1.77489 1.429113,3.20401 3.204014,3.20401 h 3.88175 V 99.860303 c 0,-0.16611 0.13378,-0.29989 0.29989,-0.29989 0.16611,0 0.29988,0.13378 0.29988,0.29989 v 11.844957 h 8.60852 V 99.860303 c 0,-0.16611 0.13378,-0.29989 0.2999,-0.29989 0.1661,0 0.29988,0.13378 0.29988,0.29989 v 11.844957 h 4.02496 c 1.77489,0 3.20401,-1.42912 3.20401,-3.20401 V 90.786476 c 0,-1.774899 -1.42912,-3.204008 -3.20401,-3.204008 z"
       clip-path="none"
       style="opacity:1;fill:#ffffff;fill-opacity:1;stroke:none;stroke-width:0.13199998;stroke-miterlimit:4;stroke-dasharray:none;stroke-opacity:1" />
    <path
       inkscape:connector-curvature="0"
       id="path1083"
       d="m 109.90923,123.36 c -7.73822,0 -13.968044,6.22982 -13.968044,13.96804 0,5.6805 3.359339,10.54424 8.205874,12.73122 V 137.5787 c 0,-0.19237 0.15492,-0.34729 0.34729,-0.34729 0.19237,0 0.34729,0.15492 0.34729,0.34729 v 12.77171 c 1.57016,0.60825 3.27756,0.94525 5.06759,0.94525 1.7268,0 3.37764,-0.31186 4.90175,-0.87983 V 137.5787 c 0,-0.19237 0.15492,-0.34729 0.34729,-0.34729 0.19236,0 0.34687,0.15492 0.34687,0.34729 v 12.55567 c 4.93614,-2.14981 8.37213,-7.06085 8.37213,-12.80633 0,-7.73822 -6.22982,-13.96804 -13.96804,-13.96804 z"
       style="opacity:1;fill:#00c687;fill-opacity:1;stroke:none;stroke-width:0.132;stroke-miterlimit:4;stroke-dasharray:none;stroke-opacity:1"
       inkscape:export-xdpi="96"
       inkscape:export-ydpi="96" />
    <rect
       ry="6.9490075"
       y="157.8862"
       x="4.4617577"
       height="34.210499"
       width="34.210499"
       id="rect1085"
       style="opacity:1;fill:none;fill-opacity:1;stroke:#000000;stroke-width:0.26458332;stroke-miterlimit:4;stroke-dasharray:none;stroke-opacity:1" />
    <path
       style="opacity:1;fill:#008080;fill-opacity:1;stroke:none;stroke-width:0.132;stroke-miterlimit:4;stroke-dasharray:none;stroke-opacity:1"
       d="m 66.329282,161.2908 c -7.738219,0 -13.968041,6.22982 -13.968041,13.96804 0,5.6805 3.359339,10.54423 8.205871,12.73121 v -12.48056 c 0,-0.19236 0.154924,-0.34729 0.347291,-0.34729 0.192367,0 0.347291,0.15493 0.347291,0.34729 v 12.77172 c 1.570155,0.60825 3.277564,0.94525 5.067588,0.94525 1.726805,0 3.377646,-0.31186 4.901748,-0.87984 v -12.83713 c 0,-0.19236 0.154925,-0.34729 0.347292,-0.34729 0.192366,0 0.34687,0.15493 0.34687,0.34729 v 12.55567 c 4.936143,-2.14981 8.372131,-7.06084 8.372131,-12.80632 0,-7.73822 -6.229821,-13.96804 -13.968041,-13.96804 z"
       id="path1089"
       inkscape:connector-curvature="0" />
    <path
       inkscape:connector-curvature="0"
       id="path1091"
       d="m 21.689899,161.02353 c -7.738219,0 -13.9680418,6.22982 -13.9680418,13.96804 0,5.6805 3.3593398,10.54423 8.2058718,12.73121 v -12.48056 c 0,-0.19236 0.154924,-0.34729 0.347291,-0.34729 0.192367,0 0.347291,0.15493 0.347291,0.34729 v 12.77172 c 1.570155,0.60825 3.277564,0.94525 5.067588,0.94525 1.726805,0 3.377646,-0.31186 4.901748,-0.87984 v -12.83713 c 0,-0.19236 0.154925,-0.34729 0.347292,-0.34729 0.192366,0 0.34687,0.15493 0.34687,0.34729 v 12.55567 c 4.936143,-2.14981 8.372131,-7.06084 8.372131,-12.80632 0,-7.73822 -6.229821,-13.96804 -13.968041,-13.96804 z"
       style="opacity:1;fill:#1a1a1a;fill-opacity:1;stroke:none;stroke-width:0.132;stroke-miterlimit:4;stroke-dasharray:none;stroke-opacity:1" />
    <path
       inkscape:connector-curvature="0"
       id="path1095"
       d="m 110.71104,161.15716 c -7.73822,0 -13.968046,6.22982 -13.968046,13.96804 0,5.6805 3.359336,10.54423 8.205876,12.73121 v -12.48056 c 0,-0.19236 0.15492,-0.34729 0.34729,-0.34729 0.19237,0 0.34729,0.15493 0.34729,0.34729 v 12.77172 c 1.57016,0.60825 3.27756,0.94525 5.06759,0.94525 1.7268,0 3.37764,-0.31186 4.90175,-0.87984 v -12.83713 c 0,-0.19236 0.15492,-0.34729 0.34729,-0.34729 0.19236,0 0.34687,0.15493 0.34687,0.34729 v 12.55567 c 4.93614,-2.14981 8.37213,-7.06084 8.37213,-12.80632 0,-7.73822 -6.22982,-13.96804 -13.96804,-13.96804 z"
       style="opacity:1;fill:#00c687;fill-opacity:1;stroke:none;stroke-width:0.132;stroke-miterlimit:4;stroke-dasharray:none;stroke-opacity:1" />
    <rect
       style="opacity:1;fill:none;fill-opacity:1;stroke:#008080;stroke-width:0.26458332;stroke-miterlimit:4;stroke-dasharray:none;stroke-opacity:1"
       id="rect1097"
       width="34.210499"
       height="34.210499"
       x="48.962135"
       y="157.8862"
       ry="6.9490075" />
    <rect
       ry="6.9490075"
       y="157.8862"
       x="93.32888"
       height="34.210499"
       width="34.210499"
       id="rect1099"
       style="opacity:1;fill:none;fill-opacity:1;stroke:#00c687;stroke-width:0.26458332;stroke-miterlimit:4;stroke-dasharray:none;stroke-opacity:1" />
  </g>
</svg>
