<?xml version="1.0" standalone="no"?>
<!DOCTYPE svg PUBLIC "-//W3C//DTD SVG 20010904//EN"
 "http://www.w3.org/TR/2001/REC-SVG-20010904/DTD/svg10.dtd">
<svg version="1.0" xmlns="http://www.w3.org/2000/svg"
 width="456.000000pt" height="456.000000pt" viewBox="0 0 456.000000 456.000000"
 preserveAspectRatio="xMidYMid meet">
<metadata>
Created by potrace 1.14, written by Peter Selinger 2001-2017
</metadata>
<g transform="translate(0.000000,456.000000) scale(0.100000,-0.100000)"
fill="#000000" stroke="none">
<path d="M935 3400 c-111 -23 -219 -60 -305 -103 -74 -38 -113 -60 -120 -67
-3 -3 -30 -24 -60 -46 -161 -121 -293 -295 -370 -488 -69 -171 -99 -426 -69
-577 6 -30 12 -65 15 -79 3 -14 7 -33 10 -42 3 -9 6 -25 8 -35 14 -66 110
-272 147 -311 10 -12 19 -25 19 -30 0 -10 69 -91 133 -155 102 -102 295 -223
417 -262 66 -21 128 -39 140 -41 8 -2 29 -6 45 -9 51 -11 307 -14 360 -4 28 5
62 11 77 13 34 6 114 30 153 47 17 6 35 13 40 13 18 2 104 46 110 56 4 6 10 8
14 6 4 -3 18 4 29 15 12 10 24 18 26 17 2 -2 16 7 30 19 14 13 26 20 26 17 0
-13 92 74 433 413 l357 356 166 -167 c92 -91 171 -166 176 -166 5 0 6 -4 3
-10 -3 -5 -2 -10 4 -10 5 0 17 -7 25 -15 27 -27 150 -105 167 -105 8 0 19 -4
25 -9 5 -6 20 -12 34 -15 14 -3 52 -12 85 -20 38 -9 93 -13 150 -11 119 4 167
15 262 57 23 10 46 18 49 18 4 -1 10 2 13 7 3 4 26 21 50 38 94 64 170 151
221 254 34 67 46 100 67 186 3 11 6 61 8 110 9 330 -214 612 -546 689 -78 18
-244 13 -319 -9 -30 -9 -60 -17 -66 -18 -7 -2 -19 -9 -28 -16 -9 -7 -16 -11
-16 -8 0 4 -26 -9 -57 -28 -60 -36 -199 -157 -268 -235 l-40 -45 77 -76 78
-77 100 99 c113 113 182 160 266 185 66 19 171 25 224 12 41 -11 143 -49 150
-57 3 -4 21 -17 40 -30 39 -26 109 -109 134 -158 9 -18 16 -34 15 -35 0 -2 5
-16 11 -33 35 -91 29 -232 -14 -329 -90 -204 -308 -316 -521 -269 -33 8 -65
15 -70 16 -6 1 -36 17 -68 35 -39 22 -136 110 -318 292 -144 143 -265 260
-269 260 -3 0 -204 -197 -446 -438 -386 -386 -449 -444 -524 -489 -81 -48
-147 -81 -180 -88 -8 -2 -16 -4 -17 -5 -2 -2 -7 -4 -13 -5 -5 -1 -11 -3 -12
-5 -4 -2 -54 -14 -113 -26 -49 -10 -236 -11 -285 -2 -25 5 -54 11 -65 12 -31
4 -158 47 -172 59 -7 5 -13 6 -13 2 0 -5 -8 -2 -17 6 -10 8 -38 25 -63 38
-108 58 -261 205 -316 306 -52 94 -67 127 -89 194 -14 42 -28 91 -31 110 -3
18 -8 43 -10 55 -7 31 -6 226 1 261 31 158 63 243 135 355 84 132 200 239 353
323 26 15 47 24 47 21 0 -4 11 1 25 10 14 9 25 14 25 11 0 -3 10 0 22 6 46 25
192 51 298 53 73 2 228 -22 283 -43 15 -6 27 -9 27 -7 0 3 37 -14 83 -36 90
-44 204 -120 225 -150 7 -10 18 -16 23 -13 5 4 9 2 9 -4 0 -6 39 -49 86 -95
l87 -86 41 42 c22 23 58 58 79 78 l38 37 -74 74 c-233 234 -383 328 -625 391
-154 41 -348 48 -487 18z"/>
<path d="M3289 3416 c-2 -2 -22 -7 -44 -10 -22 -4 -58 -11 -80 -17 -22 -6 -50
-13 -63 -15 -66 -12 -290 -116 -317 -147 -5 -7 -23 -19 -39 -27 -16 -8 -71
-56 -123 -106 -51 -49 -96 -88 -98 -85 -3 2 -5 -3 -5 -12 0 -8 -5 -17 -10 -19
-6 -2 -132 -124 -280 -272 l-269 -269 -164 164 c-206 206 -222 220 -299 267
-110 68 -208 94 -357 97 -177 3 -350 -69 -484 -200 -79 -77 -162 -221 -183
-320 -27 -121 -23 -260 10 -366 63 -204 220 -369 422 -445 35 -13 66 -24 69
-24 3 0 6 0 8 -1 51 -13 210 -17 280 -6 63 10 165 45 200 69 15 11 27 17 27
13 0 -3 6 -1 13 5 6 6 28 22 47 36 19 13 83 71 141 129 l105 104 -73 75 c-41
42 -77 76 -82 76 -4 0 -48 -39 -97 -88 -110 -108 -164 -153 -175 -146 -5 3 -9
1 -9 -4 0 -5 -32 -20 -70 -32 -80 -26 -187 -30 -260 -10 -25 7 -47 12 -50 13
-14 1 -117 62 -132 77 -10 11 -24 22 -31 27 -7 4 -29 31 -48 58 -137 193 -119
434 46 600 53 54 146 114 167 107 5 -1 8 2 8 6 0 5 6 9 13 10 6 0 30 4 52 7
84 15 185 9 240 -15 111 -47 123 -57 389 -322 149 -147 273 -268 276 -268 3 0
189 181 412 403 463 460 475 471 543 514 54 34 195 104 195 97 0 -2 16 2 35
10 19 8 35 13 35 11 0 -2 15 1 33 6 116 34 313 28 472 -14 53 -14 172 -70 235
-111 62 -41 230 -194 230 -210 0 -9 43 -70 53 -74 4 -2 7 -10 7 -18 0 -8 4
-14 10 -14 5 0 9 -3 8 -7 -1 -5 8 -29 20 -56 12 -26 22 -49 22 -52 1 -3 7 -20
15 -39 59 -140 64 -392 12 -559 -8 -26 -15 -50 -15 -53 0 -13 -95 -194 -102
-194 -5 0 -12 -10 -15 -22 -11 -32 -161 -179 -234 -228 -205 -137 -461 -185
-715 -135 -116 23 -294 108 -362 173 -8 7 -14 11 -14 7 0 -3 -52 46 -116 110
-65 63 -120 115 -124 115 -9 0 -150 -142 -150 -151 0 -5 164 -170 229 -229 46
-42 226 -158 256 -165 6 -1 21 -7 35 -12 153 -65 292 -92 459 -91 99 1 219 17
287 39 17 5 40 11 50 13 10 2 48 17 84 32 248 107 429 267 563 498 25 44 44
83 41 88 -3 4 -1 8 4 8 9 0 37 78 34 93 -1 4 2 7 6 7 5 0 9 6 9 13 1 6 13 62
27 122 92 392 -67 840 -395 1110 -109 90 -326 198 -444 221 -11 2 -31 6 -45 9
-95 21 -136 25 -240 25 -64 0 -119 -2 -121 -4z"/>
</g>
</svg>
